<svg version="1.1" xmlns="http://www.w3.org/2000/svg" xmlns:xlink="http://www.w3.org/1999/xlink" width="801" height="684"><defs></defs><g><g transform="scale(1,1)"><rect fill="#C0C0C0" stroke="none" x="233" y="17" width="128" height="152" opacity="0.2"></rect></g><g transform="scale(1,1)"><rect fill="#ffffff" stroke="none" x="226" y="10" width="128" height="152"></rect></g><g transform="scale(1,1)"><path fill="none" stroke="#000000" d="M 226 10 L 354 10 L 354 162 L 226 162 L 226 10 Z" stroke-miterlimit="10"></path></g><g transform="scale(1,1)"><path fill="none" stroke="#000000" d="M 226 35 L 354 35" stroke-miterlimit="10"></path></g><g transform="scale(1,1)"><path fill="none" stroke="#000000" d="M 226 45 L 354 45" stroke-miterlimit="10"></path></g><g transform="scale(1,1)"><g><path fill="none" stroke="none"></path><text fill="#000000" stroke="none" font-family="Arial" font-size="13px" font-style="italic" font-weight="bold" text-decoration="none" x="253.5" y="29.5">Componente</text></g></g><g transform="scale(1,1)"><g><path fill="none" stroke="none"></path><text fill="#000000" stroke="none" font-family="Arial" font-size="13px" font-style="italic" font-weight="normal" text-decoration="none" x="231" y="62.5">+operacion1()</text></g></g><g transform="scale(1,1)"><rect fill="#C0C0C0" stroke="none" x="49" y="289" width="144" height="144" opacity="0.2"></rect></g><g transform="scale(1,1)"><rect fill="#ffffff" stroke="none" x="42" y="282" width="144" height="144"></rect></g><g transform="scale(1,1)"><path fill="none" stroke="#000000" d="M 42 282 L 186 282 L 186 426 L 42 426 L 42 282 Z" stroke-miterlimit="10"></path></g><g transform="scale(1,1)"><path fill="none" stroke="#000000" d="M 42 307 L 186 307" stroke-miterlimit="10"></path></g><g transform="scale(1,1)"><path fill="none" stroke="#000000" d="M 42 317 L 186 317" stroke-miterlimit="10"></path></g><g transform="scale(1,1)"><g><path fill="none" stroke="none"></path><text fill="#000000" stroke="none" font-family="Arial" font-size="13px" font-style="normal" font-weight="bold" text-decoration="none" x="51.5" y="301.5">ComponenteConcreto</text></g></g><g transform="scale(1,1)"><g><path fill="none" stroke="none"></path><text fill="#000000" stroke="none" font-family="Arial" font-size="13px" font-style="normal" font-weight="normal" text-decoration="none" x="47" y="334.5">+operacion1()</text></g></g><g transform="scale(1,1)"><rect fill="#C0C0C0" stroke="none" x="389" y="285" width="132" height="148" opacity="0.2"></rect></g><g transform="scale(1,1)"><rect fill="#ffffff" stroke="none" x="382" y="278" width="132" height="148"></rect></g><g transform="scale(1,1)"><path fill="none" stroke="#000000" d="M 382 278 L 514 278 L 514 426 L 382 426 L 382 278 Z" stroke-miterlimit="10"></path></g><g transform="scale(1,1)"><path fill="none" stroke="#000000" d="M 382 303 L 514 303" stroke-miterlimit="10"></path></g><g transform="scale(1,1)"><path fill="none" stroke="#000000" d="M 382 313 L 514 313" stroke-miterlimit="10"></path></g><g transform="scale(1,1)"><g><path fill="none" stroke="none"></path><text fill="#000000" stroke="none" font-family="Arial" font-size="13px" font-style="italic" font-weight="bold" text-decoration="none" x="418.5" y="297.5">Decorador</text></g></g><g transform="scale(1,1)"><g><path fill="none" stroke="none"></path><text fill="#000000" stroke="none" font-family="Arial" font-size="13px" font-style="normal" font-weight="normal" text-decoration="none" x="387" y="330.5">+operacion1()</text></g></g><g transform="scale(1,1)"><rect fill="#C0C0C0" stroke="none" x="269" y="533" width="163" height="148" opacity="0.2"></rect></g><g transform="scale(1,1)"><rect fill="#ffffff" stroke="none" x="262" y="526" width="163" height="148"></rect></g><g transform="scale(1,1)"><path fill="none" stroke="#000000" d="M 262 526 L 425 526 L 425 674 L 262 674 L 262 526 Z" stroke-miterlimit="10"></path></g><g transform="scale(1,1)"><path fill="none" stroke="#000000" d="M 262 551 L 425 551" stroke-miterlimit="10"></path></g><g transform="scale(1,1)"><path fill="none" stroke="#000000" d="M 262 561 L 425 561" stroke-miterlimit="10"></path></g><g transform="scale(1,1)"><g><path fill="none" stroke="none"></path><text fill="#000000" stroke="none" font-family="Arial" font-size="13px" font-style="normal" font-weight="bold" text-decoration="none" x="283.5" y="545.5">DecoradorConcretoA</text></g></g><g transform="scale(1,1)"><g><path fill="none" stroke="none"></path><text fill="#000000" stroke="none" font-family="Arial" font-size="13px" font-style="normal" font-weight="normal" text-decoration="none" x="267" y="578.5">+operacion1()</text></g></g><g transform="scale(1,1)"><g><path fill="none" stroke="none"></path><text fill="#000000" stroke="none" font-family="Arial" font-size="13px" font-style="normal" font-weight="normal" text-decoration="none" x="267" y="593.5">+decoracionAOperacion1()</text></g></g><g transform="scale(1,1)"><rect fill="#C0C0C0" stroke="none" x="501" y="533" width="163" height="148" opacity="0.2"></rect></g><g transform="scale(1,1)"><rect fill="#ffffff" stroke="none" x="494" y="526" width="163" height="148"></rect></g><g transform="scale(1,1)"><path fill="none" stroke="#000000" d="M 494 526 L 657 526 L 657 674 L 494 674 L 494 526 Z" stroke-miterlimit="10"></path></g><g transform="scale(1,1)"><path fill="none" stroke="#000000" d="M 494 551 L 657 551" stroke-miterlimit="10"></path></g><g transform="scale(1,1)"><path fill="none" stroke="#000000" d="M 494 561 L 657 561" stroke-miterlimit="10"></path></g><g transform="scale(1,1)"><g><path fill="none" stroke="none"></path><text fill="#000000" stroke="none" font-family="Arial" font-size="13px" font-style="normal" font-weight="bold" text-decoration="none" x="515.5" y="545.5">DecoradorConcretoB</text></g></g><g transform="scale(1,1)"><g><path fill="none" stroke="none"></path><text fill="#000000" stroke="none" font-family="Arial" font-size="13px" font-style="normal" font-weight="normal" text-decoration="none" x="499" y="578.5">+operacion1()</text></g></g><g transform="scale(1,1)"><g><path fill="none" stroke="none"></path><text fill="#000000" stroke="none" font-family="Arial" font-size="13px" font-style="normal" font-weight="normal" text-decoration="none" x="499" y="593.5">+decoracionBOperacion1()</text></g></g><g transform="scale(1,1)"><path fill="none" stroke="#000000" d="M 374.7540322580645 525 L 416.2459677419355 427" stroke-miterlimit="10"></path></g><g transform="scale(1,1)"><path fill="#FFFFFF" stroke="none" d="M 416.0742676385448 448.9993299687626 L 416.2459677419355 427 L 400.568682032025 442.4344650950345"></path></g><g transform="scale(1,1)"><path fill="none" stroke="#000000" d="M 416.0742676385448 448.9993299687626 L 416.2459677419355 427 L 400.568682032025 442.4344650950345 L 416.0742676385448 448.9993299687626" stroke-miterlimit="10"></path></g><g transform="scale(1,1)"><path fill="none" stroke="#000000" d="M 536.5927419354839 525 L 486.4072580645161 427" stroke-miterlimit="10"></path></g><g transform="scale(1,1)"><path fill="#FFFFFF" stroke="none" d="M 503.1652907571928 441.2537132099386 L 486.4072580645161 427 L 488.1780793530178 448.92861582417345"></path></g><g transform="scale(1,1)"><path fill="none" stroke="#000000" d="M 503.1652907571928 441.2537132099386 L 486.4072580645161 427 L 488.1780793530178 448.92861582417345 L 503.1652907571928 441.2537132099386" stroke-miterlimit="10"></path></g><g transform="scale(1,1)"><path fill="none" stroke="#000000" d="M 403.4511278195489 277 L 335.7368421052631 163" stroke-miterlimit="10"></path></g><g transform="scale(1,1)"><path fill="#FFFFFF" stroke="none" d="M 353.3551573288797 176.17554434098565 L 335.7368421052631 163 L 338.8783555236296 184.7745469170365"></path></g><g transform="scale(1,1)"><path fill="none" stroke="#000000" d="M 353.3551573288797 176.17554434098565 L 335.7368421052631 163 L 338.8783555236296 184.7745469170365 L 353.3551573288797 176.17554434098565" stroke-miterlimit="10"></path></g><g transform="scale(1,1)"><path fill="none" stroke="#000000" d="M 161.94029850746267 281 L 239.4328358208955 163" stroke-miterlimit="10"></path></g><g transform="scale(1,1)"><path fill="#FFFFFF" stroke="none" d="M 235.31287467505712 184.61078249755855 L 239.4328358208955 163 L 221.2384525056769 175.36787838632375"></path></g><g transform="scale(1,1)"><path fill="none" stroke="#000000" d="M 235.31287467505712 184.61078249755855 L 239.4328358208955 163 L 221.2384525056769 175.36787838632375 L 235.31287467505712 184.61078249755855" stroke-miterlimit="10"></path></g><g transform="scale(1,1)"><path fill="#ffffff" stroke="none" d="M 634 314 L 780 314 L 790 324 L 790 337 L 634 337 L 634 314"></path></g><g transform="scale(1,1)"><path fill="none" stroke="#000000" d="M 634 314 L 780 314 L 790 324 L 790 337 L 634 337 L 634 314 L 634 314" stroke-miterlimit="10"></path></g><g transform="scale(1,1)"><path fill="none" stroke="#000000" d="M 780 314 L 780 324 L 790 324 L 780 314" stroke-miterlimit="10"></path></g><g transform="scale(1,1)"><g><path fill="none" stroke="none"></path><text fill="#000000" stroke="none" font-family="Arial" font-size="13px" font-style="normal" font-weight="normal" text-decoration="none" x="639" y="332">componente operacion1</text></g></g><g transform="scale(1,1)"><path fill="none" stroke="#000000" d="M 634 326 L 514 326" stroke-miterlimit="10" stroke-dasharray="3"></path></g><g transform="scale(1,1)"><path fill="#ffffff" stroke="none" d="M 10 554 L 189 554 L 199 564 L 199 592 L 10 592 L 10 554"></path></g><g transform="scale(1,1)"><path fill="none" stroke="#000000" d="M 10 554 L 189 554 L 199 564 L 199 592 L 10 592 L 10 554 L 10 554" stroke-miterlimit="10"></path></g><g transform="scale(1,1)"><path fill="none" stroke="#000000" d="M 189 554 L 189 564 L 199 564 L 189 554" stroke-miterlimit="10"></path></g><g transform="scale(1,1)"><g><path fill="none" stroke="none"></path><text fill="#000000" stroke="none" font-family="Arial" font-size="13px" font-style="normal" font-weight="normal" text-decoration="none" x="15" y="572">super operacion1.</text></g></g><g transform="scale(1,1)"><g><path fill="none" stroke="none"></path><text fill="#000000" stroke="none" font-family="Arial" font-size="13px" font-style="normal" font-weight="normal" text-decoration="none" x="15" y="587">self decoracionAOperacion1()</text></g></g><g transform="scale(1,1)"><path fill="none" stroke="#000000" d="M 200 570 L 262 570" stroke-miterlimit="10" stroke-dasharray="3"></path></g><g transform="scale(1,1)"><path fill="none" stroke="#000000" d="M 498 278 L 498 90 L 354 90" stroke-miterlimit="10"></path></g><g transform="scale(1,1)"><path fill="none" stroke="#000000" d="M 364.1626748576241 85.790482243984 L 354 90 L 364.1626748576241 94.209517756016" stroke-miterlimit="10"></path></g><g transform="scale(1,1)"><g><path fill="none" stroke="none"></path><text fill="#000000" stroke="none" font-family="Arial" font-size="13px" font-style="normal" font-weight="normal" text-decoration="none" x="458" y="263">+componente</text></g></g></g></svg>